<svg id="Capa_1" enable-background="new 0 0 512 512" height="512" viewBox="0 0 512 512" width="512" xmlns="http://www.w3.org/2000/svg"><path d="m100.79 298.74c5.86 5.86 15.36 5.86 21.22 0l53.66-53.66 105.77 105.77c32.02-7.73 53.98-23.6 67.93-37.53 5.65-5.64 10.74-11.73 15.21-18.15l-119.5-119.5 69.73-69.73c4.29-4.29 5.57-10.74 3.25-16.35-2.32-5.6-7.79-9.26-13.86-9.26h-128.53c-3.98 0-7.8 1.58-10.61 4.4l-128.53 128.53c-5.86 5.86-5.86 15.36 0 21.21z"/><path d="m489.48 420.06c-6.43 8.74-13.43 17.1-20.96 25.01-15.34 16.12-32.52 30.01-51.34 41.53l21.01 21.01c2.93 2.93 6.77 4.39 10.61 4.39s7.68-1.46 10.61-4.39l48.2-48.2c5.85-5.86 5.85-15.36 0-21.22z"/><path d="m512 256.001c0-182.052-152.713-245.601-187.67-255.438-7.213-2.03-14.824 1.578-17.817 8.452-2.992 6.874-.451 14.901 5.953 18.799 1.053.641 105.268 65.601 105.268 196.054 0 79.501-66.506 161.733-177.8 161.733-65.701 0-118.259-44.152-118.763-44.581-5.95-5.108-14.833-4.771-20.377.775l-96.4 96.4c-5.858 5.858-5.858 15.355 0 21.213l48.2 48.2c2.928 2.928 6.767 4.392 10.606 4.392s7.678-1.464 10.606-4.394l55.618-55.618c22.711 14.085 78.432 43.945 142.642 43.945 146.014 0 239.934-110.816 239.934-239.932z"/></svg>